<svg xmlns="http://www.w3.org/2000/svg" width="152" height="164" fill="none" viewBox="0 0 152 164"><path fill="#fff" d="M0 0h152v164H0z"/><path fill="#BBDFF5" d="m128.951 92.561-35.096 1.915c-3.96 1.808-8.924 1.24-13.14.962-9.47-.625-18.74-2.203-28.258-2.258-7.07-.044-13.992.873-21.003 1.545-6.253.6-11.473 5.928-14.737 11.31-3.263 5.383-3.957 12.574-.673 17.941 2.388 3.905 6.482 6.407 10.56 8.473 8.645 4.38 18.208 7.512 27.878 6.919 9.67-.594 19.434-5.428 24.17-13.898 2.788 6.576 8.754 11.463 15.392 14.077 6.639 2.615 13.975 6.285 21.1 5.991 4.784-.197 9.584-3.912 13.972-5.834 4.388-1.923 8.301-5.332 9.944-9.839 2.271-6.222 4.658-12.186 1.72-18.122-2.938-5.936-4.848-11.86-11.829-19.182Z"/><path fill="#6A79A8" d="M114.317 146.014c-5.758 0-11.51-2.373-17.08-4.672a204.343 204.343 0 0 0-3.364-1.367c-6.98-2.745-12.498-7.633-15.279-13.497-2.3 3.762-5.728 6.964-9.957 9.3-4.25 2.343-9.133 3.744-14.13 4.052-4.578.277-9.446-.261-14.47-1.609-4.33-1.162-8.92-2.964-13.644-5.359-2.542-1.288-4.387-2.395-5.982-3.589-2.076-1.555-3.635-3.208-4.764-5.054-1.615-2.64-2.371-5.835-2.186-9.234a19.867 19.867 0 0 1 2.859-9.191c1.952-3.218 7.33-10.785 15.087-11.529 1.443-.139 2.907-.29 4.322-.436 5.451-.564 11.087-1.148 16.728-1.111 5.864.034 11.723.653 17.39 1.253 3.562.376 7.245.765 10.895 1.005.394.026.795.055 1.2.084 3.836.273 8.18.582 11.651-.975.082-.062.177-.067.627-.092l34.704-1.893a.46.46 0 0 1 .36.142c5.721 6 8.059 11.058 10.322 15.95a137.374 137.374 0 0 0 1.584 3.346c1.313 2.654 1.703 5.557 1.192 8.885-.452 2.938-1.51 5.829-2.631 8.89l-.26.713c-1.558 4.269-5.273 7.951-10.194 10.104-1.338.585-2.698 1.331-4.139 2.12-3.234 1.774-6.586 3.611-9.998 3.749-.28.01-.562.015-.843.015Zm-35.665-21.007h.025a.459.459 0 0 1 .4.278c2.544 6.002 8.06 11.04 15.136 13.823 1.11.436 2.212.891 3.378 1.373 5.751 2.373 11.698 4.826 17.535 4.586 3.196-.132 6.448-1.914 9.592-3.636 1.459-.8 2.838-1.555 4.214-2.157 4.69-2.05 8.223-5.54 9.695-9.573l.26-.714c2.168-5.92 4.216-11.513 1.479-17.04a144.484 144.484 0 0 1-1.595-3.37c-2.211-4.78-4.496-9.724-10.005-15.545L93.963 94.93c-3.681 1.648-8.144 1.33-12.085 1.05-.404-.03-.804-.058-1.2-.084-3.668-.242-7.36-.632-10.931-1.01-5.645-.596-11.482-1.213-17.3-1.247-5.588-.036-11.2.546-16.63 1.111-1.418.147-2.883.298-4.33.437-7.34.704-12.505 7.989-14.386 11.089a19.212 19.212 0 0 0-2.725 8.759c-.175 3.213.535 6.221 2.05 8.699 2.38 3.89 6.58 6.379 10.376 8.301 4.668 2.366 9.198 4.146 13.466 5.291 4.928 1.323 9.702 1.853 14.175 1.575 4.862-.299 9.614-1.661 13.74-3.939 4.37-2.408 7.847-5.775 10.056-9.724a.465.465 0 0 1 .41-.231h.003Z"/><path fill="#EFEFEF" d="M56.191 146.635c-6.43 3.907-14.591 5.546-21.592 2.794-7.925-3.115-12.837-10.989-16.677-18.605-1.908-3.785-3.706-7.669-4.643-11.805-.937-4.136-.964-8.577.606-12.515 2.541-6.37 8.696-10.306 14.766-12.834 3.327-1.384 7.946-.564 11.556-.494l24.186.475c.941.02 2.946 2.373 3.604 3.01a34.589 34.589 0 0 1 3.47 3.908c2.124 2.793 4.392 5.834 4.842 9.331.472 3.673.462 7.02-.45 10.372-.72 2.658-.506 5.051-1.785 7.529-1.206 2.337-3.348 4.549-4.973 6.65-3.632 4.697-7.807 9.084-12.91 12.184Z"/><path fill="#6A79A8" d="M42.088 151.256c-2.68 0-5.275-.463-7.657-1.396-8.164-3.209-13.135-11.318-16.92-18.827-2.162-4.287-3.789-7.953-4.681-11.912-1.06-4.68-.844-9.102.627-12.788 2.17-5.44 7.222-9.844 15.017-13.09 2.613-1.09 5.996-.867 8.98-.67.974.063 1.894.123 2.762.14l24.187.475c.877.018 2.11 1.245 3.405 2.61.209.221.389.411.51.53a35.07 35.07 0 0 1 3.517 3.959c1.986 2.609 4.458 5.856 4.934 9.553.533 4.151.39 7.409-.462 10.552-.265.975-.402 1.932-.535 2.858-.224 1.549-.454 3.149-1.286 4.762-.88 1.705-2.223 3.319-3.52 4.88a67.327 67.327 0 0 0-1.499 1.842c-4.357 5.633-8.5 9.539-13.036 12.296-4.587 2.788-9.601 4.226-14.343 4.226ZM33.68 93.332c-1.756 0-3.429.172-4.854.766-7.558 3.148-12.44 7.379-14.515 12.578-1.77 4.436-1.294 9.105-.584 12.24.875 3.866 2.473 7.474 4.604 11.7 3.708 7.352 8.559 15.286 16.434 18.381 6.33 2.488 14.25 1.456 21.187-2.759 4.436-2.696 8.5-6.532 12.785-12.073.476-.615.983-1.223 1.519-1.868 1.266-1.522 2.576-3.096 3.409-4.711.76-1.474.97-2.929 1.192-4.469.137-.953.277-1.939.554-2.964.82-3.025.955-6.167.437-10.187-.444-3.452-2.832-6.589-4.75-9.11a34.278 34.278 0 0 0-3.42-3.855c-.136-.132-.323-.329-.54-.556-.598-.632-2.189-2.315-2.753-2.322L40.2 93.647c-.89-.017-1.82-.078-2.806-.143-1.239-.09-2.49-.172-3.71-.172h-.004Z"/><path fill="#6A79A8" d="M77.092 128.504a.464.464 0 0 1-.462-.448c-.009-.245-.806-24.693-.764-39.91l.127-47.198a.464.464 0 0 1 .789-.327.464.464 0 0 1 .135.327v.064l-.127 47.134c-.042 15.2.754 39.631.763 39.877a.461.461 0 0 1-.447.478l-.014.003Z"/><path fill="#F9DB98" d="M145.853 55.856c-1.672-9.363-15.917-10.583-24.127-9.918-8.211.665-16.125 5.285-23.045 11.15-5.392-7.472-13.097-11.956-20.92-12.169-7.822-.213-15.518 4.318-21.142 11.49-4.435-4.656-9.835-7.559-15.394-9.017-5.56-1.459-11.288-1.518-16.936-.892-6.56.727-13.544 2.71-18 9.096 5.55-19.35 18.55-33.188 33.044-41.102C55.653 5.583 73.63 4.147 91.298 6.545c20.088 2.726 48.832 17.277 54.555 49.31Z"/><path fill="#6A79A8" d="M98.681 57.555h-.055a.462.462 0 0 1-.319-.185c-2.608-3.612-5.86-6.618-9.406-8.681-3.545-2.063-7.391-3.199-11.152-3.302-3.738-.102-7.49.88-11.158 2.919-3.506 1.944-6.827 4.85-9.61 8.397a.462.462 0 0 1-.697.034c-4.076-4.28-9.324-7.354-15.176-8.89-4.938-1.297-10.423-1.584-16.768-.88-11.131 1.227-15.417 5.665-17.671 8.896a.462.462 0 0 1-.823-.394c2.66-9.27 7.12-17.689 13.258-25.005a69.336 69.336 0 0 1 20.01-16.376C46.892 9.84 55.516 7.06 64.75 5.82c8.224-1.104 17.178-1.018 26.61.266 11.538 1.566 23.522 6.576 32.884 13.757 5.586 4.282 10.256 9.305 13.885 14.926 4.065 6.298 6.815 13.366 8.18 21.006a.474.474 0 0 1-.07.353.464.464 0 0 1-.652.117.463.463 0 0 1-.188-.307c-.707-3.961-3.831-6.772-9.286-8.355-5.701-1.655-11.934-1.376-14.353-1.182-7.159.583-14.825 4.298-22.784 11.042a.461.461 0 0 1-.294.112ZM77.219 44.447c.184 0 .37.003.554.008 3.915.107 7.923 1.296 11.591 3.426 3.524 2.052 6.765 5.001 9.398 8.538 7.974-6.668 15.685-10.35 22.926-10.938 2.466-.201 8.833-.485 14.681 1.212 2.657.77 4.829 1.852 6.459 3.216.6.497 1.144 1.058 1.623 1.673a55.423 55.423 0 0 0-7.099-16.31c-3.569-5.532-8.168-10.476-13.675-14.694-9.24-7.082-21.067-12.03-32.445-13.574-9.346-1.269-18.216-1.359-26.359-.266-9.12 1.224-17.638 3.97-25.316 8.163a68.424 68.424 0 0 0-19.744 16.154 66.714 66.714 0 0 0-12.368 22.35c4.918-5.437 11.827-6.814 16.796-7.365 6.46-.716 12.055-.42 17.103.904 5.845 1.534 11.103 4.56 15.246 8.767 2.788-3.456 6.083-6.291 9.557-8.222 3.63-2.02 7.353-3.042 11.072-3.042Z"/><path fill="#6A79A8" d="M56.734 56.666a.461.461 0 0 1-.462-.463c-.079-10.53 1.663-21.157 4.897-29.922 1.788-4.841 4.022-9.134 6.638-12.757 2.828-3.917 6.112-7.058 9.761-9.338a.461.461 0 0 1 .695.498.463.463 0 0 1-.206.288c-3.547 2.215-6.745 5.279-9.502 9.095-2.567 3.555-4.76 7.773-6.52 12.536-3.2 8.662-4.919 19.17-4.841 29.592a.464.464 0 0 1-.462.463l.002.008Z"/><path fill="#6A79A8" d="M98.698 57.37a.46.46 0 0 1-.462-.437c-.594-10.566-2.408-20.11-5.399-28.368-3.51-9.697-8.672-17.65-15.331-23.637a.462.462 0 1 1 .616-.69c6.774 6.09 12.012 14.17 15.583 24.011 3.022 8.343 4.857 17.976 5.451 28.633a.464.464 0 0 1-.436.488h-.022Z"/><path fill="#6A79A8" d="M78.403 4.898c-.23-.79-.024-1.667 0-2.512S78.112.508 77.47.464c-.64-.043-1.034.945-1.029 1.783.005.838.242 1.667.147 2.5.323.811 1.593 1.02 1.814.15Z"/><path fill="#6A79A8" d="M77.654 5.922a1.64 1.64 0 0 1-1.495-1.003.465.465 0 0 1-.03-.226c.05-.432 0-.88-.06-1.355a9.363 9.363 0 0 1-.092-1.087c0-.588.174-1.444.685-1.927A1.096 1.096 0 0 1 77.5.002c.93.06 1.398 1.28 1.364 2.396-.007.262-.031.524-.055.778-.052.574-.102 1.116.036 1.59a.465.465 0 0 1 0 .244 1.184 1.184 0 0 1-1.1.906.462.462 0 0 1-.091.006Zm-.593-1.26a.734.734 0 0 0 .63.332.262.262 0 0 0 .229-.119c-.138-.593-.083-1.197-.029-1.782.023-.25.044-.487.052-.72.022-.741-.262-1.43-.502-1.445-.017 0-.064 0-.142.07-.228.215-.398.751-.395 1.248.009.328.036.655.082.98.072.475.098.956.075 1.435ZM5.376 55.09c.326-.79.9-1.508 1.316-1.614 2.25-.569-.046 5.157-1.353 3.464-.34-.444-.243-1.172.037-1.85ZM55.798 57.2c-.026-.9.185-1.904.502-2.276 1.708-2.011 1.968 4.456.185 3.89-.462-.15-.663-.843-.687-1.615ZM97.79 57.874c-.144-.88-.064-1.917.198-2.355 1.421-2.368 2.519 3.945.69 3.788-.477-.041-.765-.681-.888-1.433ZM145.018 56.978c-.27-.826-.345-1.864-.151-2.36 1.048-2.686 3.049 3.229 1.232 3.54-.474.082-.85-.47-1.081-1.18Z"/><path fill="#fff" d="M128.951 92.561s8.7 5.147 16.13 18.194c6.813 11.963 8.153 27.71-1.594 38.589-8.763 9.781-22.251 12.933-34.834 10.259-8.257-1.753-16.05-5.878-22.012-11.886-4.207-4.238-8.34-8.548-12.262-13.058-3.653-4.195-7.82-8.157-10.896-12.807-.594-.898-1.65-2.408-.394-3.149 2.288-1.348 7.114 5.001 8.295 6.508a135.933 135.933 0 0 1-4.844-5.748c-.647-.806-1.245-2.08-.454-2.742.66-.556 1.654-.076 2.348.435a29.239 29.239 0 0 1 4.964 4.647 38.786 38.786 0 0 1-3.418-4.207c-.354-.503-.712-1.093-.574-1.692.17-.741 1.065-1.118 1.812-.983.746.134 1.367.634 1.947 1.123 8.316 7.018 14.928 16.404 23.99 22.625 5.042 3.462 11.826 4.903 17.873 4.008 6.046-.894 11.703-4.202 15.454-9.038l-1.531-41.078Z"/><path fill="#BBDFF5" d="M145.081 110.755c-7.43-13.047-16.13-18.194-16.13-18.194l1.531 41.078c-3.751 4.836-9.408 8.144-15.454 9.038-6.047.895-12.816-.665-17.858-4.127l-10.53 9.167c5.963 6.008 13.756 10.133 22.013 11.886 12.583 2.674 26.071-.478 34.834-10.259 9.747-10.879 8.407-26.626 1.594-38.589Z"/><path fill="#6A79A8" d="M117.251 160.977a41.951 41.951 0 0 1-8.697-.919c-8.435-1.792-16.335-6.058-22.245-12.013-5.067-5.107-8.855-9.14-12.282-13.077-1.082-1.243-2.232-2.49-3.345-3.696-2.657-2.882-5.406-5.863-7.587-9.16l-.052-.078c-.499-.752-1.183-1.783-.966-2.721.092-.421.357-.759.775-1.005.739-.437 1.646-.267 2.62.278-.332-.806-.36-1.652.314-2.215.712-.594 1.748-.446 2.918.417.147.109.292.218.437.329-.196-.411-.298-.848-.191-1.312.185-.811 1.135-1.553 2.343-1.336.832.151 1.5.666 2.164 1.226 3.511 2.964 6.775 6.403 9.927 9.725 4.333 4.567 8.813 9.29 14.026 12.873 2.402 1.651 5.309 2.885 8.398 3.567 3.049.673 6.209.799 9.147.365a23.77 23.77 0 0 0 15.154-8.865.458.458 0 0 1 .648-.081.466.466 0 0 1 .082.65 24.702 24.702 0 0 1-15.752 9.212c-3.049.451-6.326.32-9.48-.377-3.205-.707-6.22-1.99-8.722-3.704-5.293-3.635-9.808-8.394-14.172-12.997-3.136-3.306-6.376-6.724-9.854-9.656-.586-.495-1.12-.913-1.731-1.019-.514-.093-1.171.158-1.28.631-.093.404.184.874.5 1.322a38.365 38.365 0 0 0 2.258 2.902c.392.414.771.837 1.138 1.272a.463.463 0 0 1-.689.616 40.264 40.264 0 0 1-1.135-1.266 28.777 28.777 0 0 0-3.767-3.324c-.289-.214-1.27-.876-1.777-.453-.546.458.1 1.575.519 2.098.44.551.884 1.1 1.333 1.647 1.178 1.192 2.338 2.603 3.336 3.876l.176.225a.465.465 0 0 1-.393.758.461.461 0 0 1-.313-.161 151.39 151.39 0 0 1-3.514-4.113c-.133-.135-.27-.267-.405-.398-1.733-1.651-3.08-2.329-3.788-1.909-.257.151-.318.308-.343.413-.127.55.476 1.458.831 2l.054.08c2.14 3.235 4.863 6.187 7.496 9.043 1.116 1.211 2.271 2.463 3.362 3.716 3.413 3.921 7.188 7.941 12.241 13.032 5.785 5.829 13.521 10.002 21.782 11.762 6.3 1.338 12.743 1.181 18.632-.453 6.191-1.717 11.642-5.059 15.764-9.664 4.474-4.992 6.856-11.418 6.889-18.58.03-6.443-1.871-13.357-5.353-19.47-2.103-3.693-5.678-9.1-10.767-13.882-3.031-2.849-5.174-4.129-5.196-4.142a.46.46 0 0 1-.233-.466.465.465 0 0 1 .531-.395c.061.01.119.031.171.064.093.053 2.254 1.346 5.359 4.26 2.855 2.686 7.071 7.307 10.938 14.098 3.56 6.253 5.504 13.331 5.474 19.933-.035 7.394-2.495 14.031-7.126 19.195-4.243 4.737-9.846 8.173-16.205 9.938a38.789 38.789 0 0 1-10.377 1.384Z"/><path fill="#fff" d="M25.555 138.114c3.314 4.723 9.746 6.525 15.418 5.515 5.672-1.011 10.663-4.394 14.902-8.306 4.239-3.912 7.903-8.413 12.13-12.337 2.142-1.986 4.445-3.823 6.963-5.309 2.125-1.254 5.16-2.929 7.683-2.987.712-.016 1.49.409 1.624 1.111.14.734-.438 1.398-1.006 1.883A14.744 14.744 0 0 1 79.555 120a8.907 8.907 0 0 1 4.01-.945c.685 0 1.505.185 1.732.833.133.381 0 .814-.24 1.136-.24.322-.58.556-.913.782-1.017.697-2.384 1.449-2.384 1.449.454-.278 1.36-.508 1.887-.591.525-.082 1.108.035 1.478.417.462.476.493 1.257.228 1.867-.264.61-.768 1.081-1.286 1.497-.82.662-1.671 1.297-2.424 2.032-6.118 5.959-10.719 13.309-17.06 19.05-6.538 5.915-14.09 10.899-22.545 13.382-8.454 2.482-17.878 2.287-25.755-1.668-14.17-7.107-18.494-24.931-11.629-38.732 1.093-2.195 2.26-5.379 3.858-7.236 5.851-6.799 7.761-12.382 22.605-20.277l-5.562 45.118Z"/><path fill="#EFEFEF" d="M40.973 143.629c-5.672 1.01-12.104-.792-15.418-5.515l5.562-45.118c-14.844 7.895-16.754 13.478-22.605 20.277-1.598 1.857-2.765 5.041-3.858 7.236-6.865 13.801-2.54 31.625 11.629 38.732 7.877 3.955 17.301 4.15 25.755 1.668 8.455-2.483 16.007-7.467 22.545-13.382-.04.037-8.788-12.13-8.828-12.094-4.213 3.865-9.163 7.195-14.782 8.196Z"/><path fill="#6A79A8" d="M30.846 163a37.08 37.08 0 0 1-1.923-.05c-4.657-.245-8.979-1.353-12.843-3.292-6.837-3.427-11.789-9.519-13.94-17.144a31.19 31.19 0 0 1 2.105-22.208c.285-.575.576-1.217.883-1.897.853-1.884 1.82-4.02 3.038-5.436 1.235-1.434 2.31-2.831 3.34-4.182 3.917-5.11 7.618-9.936 19.398-16.2a.462.462 0 0 1 .58.705.46.46 0 0 1-.147.112c-11.604 6.17-15.246 10.919-19.098 15.947-1.043 1.361-2.125 2.769-3.373 4.223-1.132 1.315-2.07 3.386-2.896 5.213-.311.688-.605 1.338-.898 1.928a30.245 30.245 0 0 0-2.044 21.542c2.079 7.371 6.86 13.256 13.464 16.568 3.75 1.881 7.946 2.956 12.48 3.195 4.223.223 8.698-.317 12.935-1.563 7.55-2.216 15.074-6.684 22.36-13.28 3.372-3.051 6.305-6.631 9.142-10.095 2.48-3.027 5.044-6.158 7.905-8.944a25.018 25.018 0 0 1 1.932-1.642c.176-.139.352-.277.525-.419.44-.354.924-.788 1.152-1.322.176-.406.21-1.005-.135-1.357-.236-.242-.647-.35-1.078-.284-.513.081-1.216.271-1.607.463l-.129.073a.465.465 0 0 1-.607-.182.464.464 0 0 1 .145-.619 32.746 32.746 0 0 0 2.365-1.437c.298-.203.606-.413.804-.678.174-.231.242-.507.174-.703-.17-.481-1.035-.522-1.294-.523a8.41 8.41 0 0 0-3.246.642c-.19.092-.384.18-.579.265a.466.466 0 0 1-.607-.227.465.465 0 0 1 .216-.613c.194-.096.392-.187.592-.271a14.244 14.244 0 0 0 3.03-1.982c.646-.549.929-1.034.851-1.443-.087-.463-.647-.735-1.132-.735h-.028c-2.298.052-5.06 1.507-7.459 2.923-2.264 1.337-4.516 3.056-6.882 5.25-2.083 1.933-4.066 4.047-5.985 6.091-1.964 2.095-3.996 4.26-6.148 6.247-5.174 4.773-10.121 7.527-15.133 8.42a18.193 18.193 0 0 1-8.82-.623c-2.986-1-5.426-2.757-7.057-5.082a.463.463 0 0 1 .756-.532c2.981 4.249 8.993 6.39 14.96 5.326 4.833-.861 9.631-3.541 14.669-8.19 2.125-1.963 4.146-4.117 6.098-6.205 1.928-2.056 3.923-4.181 6.029-6.135 2.416-2.243 4.72-3.999 7.042-5.372 2.5-1.476 5.395-2.993 7.906-3.051.871-.023 1.899.495 2.089 1.487.145.76-.245 1.542-1.16 2.323-.236.201-.478.395-.724.581.24-.018.48-.027.722-.027 1.123 0 1.913.421 2.166 1.142.173.495.058 1.081-.307 1.567-.29.387-.679.648-1.017.887l-.031.021c.41.064.789.255 1.084.548.646.662.627 1.667.322 2.375-.305.707-.893 1.249-1.42 1.673-.177.143-.354.284-.531.424a24.383 24.383 0 0 0-1.862 1.58c-2.824 2.75-5.371 5.86-7.835 8.867-2.858 3.49-5.813 7.097-9.24 10.194-7.391 6.69-15.039 11.226-22.723 13.482A40.565 40.565 0 0 1 30.846 163Z"/><path fill="#fff" d="M128.95 92.561c-6.069 4.85-10.034 6.365-16.073 7.12-6.038.753-14.553-1.07-19.026-5.205 3.295-1.505 3.003-6.483 2.824-9.461-.298-4.93-1.05-9.982.065-14.865 1.715-7.502 9.094-13.196 16.574-9.053 5.19 2.87 5.713 7.297 7.299 12.553 1.749 5.814 5.166 13.713 8.337 18.911Z"/><path fill="#6A79A8" d="M110.09 100.307a30.65 30.65 0 0 1-7.426-.947c-2.653-.677-6.39-2.015-9.126-4.544a.463.463 0 0 1 .122-.761c3.015-1.378 2.726-6.157 2.554-9.013-.057-.95-.134-1.926-.207-2.87-.311-3.993-.633-8.122.283-12.133 1.016-4.436 3.948-8.225 7.658-9.887 3.12-1.398 6.436-1.214 9.59.532 4.635 2.568 5.686 6.33 6.902 10.684.194.695.394 1.412.613 2.142 1.827 6.063 5.237 13.794 8.291 18.8a.464.464 0 0 1-.106.603c-5.816 4.649-9.777 6.402-16.303 7.217-.944.118-1.894.177-2.845.177Zm-15.437-5.742c2.017 1.678 4.913 3.056 8.239 3.9 3.342.853 6.96 1.13 9.93.758 5.451-.68 9.384-1.926 15.522-6.769-3.035-5.073-6.369-12.678-8.174-18.667-.222-.74-.424-1.461-.619-2.16-1.209-4.326-2.162-7.743-6.459-10.122-2.89-1.6-5.921-1.773-8.766-.498-3.45 1.546-6.183 5.093-7.134 9.248-.884 3.868-.568 7.926-.263 11.849.074.947.15 1.926.208 2.886.175 2.901.461 7.648-2.484 9.57v.005Z"/><path fill="#6A79A8" d="M116.683 63.015c-1.926-1.76-4.163-3.418-6.754-3.996-1.251-.278-2.518-.306-3.744.054-.269.079-2.857 1.084-2.402 1.521-.924-.894-2.476-.423-3.558.278-5.267 3.397-6.152 9.3-4.076 14.855.787-6.39 6.601-9.804 7.963-14.125.454.084.864.14 1.043.211 1.269.498 2.242 1.659 2.943 2.786.996 1.604 1.762 3.442 3.272 4.573 1.478 1.106 3.401 1.338 5.179 1.822 1.294.351 2.452 1.064 3.453 1.99 1.492 1.377 2.628 3.222 3.303 5.046-1.945-5.258-2.053-10.849-6.622-15.015Z"/><path fill="#6A79A8" d="M123.303 78.49a.464.464 0 0 1-.433-.301c-.699-1.89-1.829-3.618-3.181-4.867-1.017-.936-2.113-1.57-3.262-1.883a34.625 34.625 0 0 0-1.209-.299c-1.429-.337-2.906-.686-4.126-1.6-1.22-.913-1.977-2.244-2.705-3.529-.22-.389-.449-.79-.682-1.169-.836-1.345-1.75-2.222-2.72-2.6a4.81 4.81 0 0 0-.567-.117c-.64 1.706-1.899 3.262-3.225 4.902-2.032 2.516-4.14 5.119-4.587 8.754a.464.464 0 0 1-.698.338.463.463 0 0 1-.193-.233c-1.109-2.951-1.357-5.892-.732-8.505.68-2.848 2.402-5.234 4.989-6.9a5.276 5.276 0 0 1 2.021-.804c.594-.087 1.128-.015 1.57.207.203-.185.548-.415 1.147-.701.436-.211.884-.397 1.341-.556 1.216-.357 2.553-.378 3.973-.061 2.922.648 5.374 2.655 6.965 4.105 3.369 3.072 4.4 6.955 5.397 10.708.392 1.482.799 3.01 1.344 4.485a.455.455 0 0 1-.054.425.459.459 0 0 1-.378.199l.005.003ZM104.11 61.138a.52.52 0 0 1 .085.007c.123.023.244.045.357.064.262.034.519.092.771.172 1.157.454 2.223 1.454 3.166 2.972.244.394.477.804.701 1.204.713 1.257 1.386 2.444 2.455 3.242 1.068.797 2.386 1.111 3.788 1.439.407.093.831.195 1.239.308 1.293.351 2.52 1.057 3.645 2.095.47.436.905.91 1.3 1.415l-.116-.437c-1.007-3.79-1.957-7.372-5.126-10.26-3.159-2.88-5.247-3.598-6.543-3.89-1.267-.278-2.449-.267-3.511.046-.363.107-1.704.685-2.078 1.005a.47.47 0 0 1-.243.483.463.463 0 0 1-.534-.077c-.73-.707-2.066-.263-2.988.33-2.414 1.558-3.959 3.69-4.592 6.337-.462 1.945-.403 4.087.167 6.286.844-3.006 2.732-5.34 4.428-7.438 1.369-1.693 2.661-3.292 3.194-4.984a.459.459 0 0 1 .435-.32Z"/><path fill="#6A79A8" d="M134.126 88.215c-.455-3.504-3.296-5.835-6.128-7.566-2.569-1.575-5.452-5.187-6.958-7.843 1.695 2.978-.13 7.965.028 11.392.158 3.426.103 6.901.991 10.211 1.314 4.9 5.446 9.668 10.88 8.785 2.825-.463 5.382-1.893 7.873-3.302-3.216.165-6.341-2.416-6.794-5.612-.283-2.01.369-4.056.108-6.065Z"/><path fill="#6A79A8" d="M131.636 103.76c-2.151 0-4.199-.834-5.99-2.45-1.855-1.674-3.326-4.148-4.032-6.785-.739-2.75-.837-5.63-.933-8.414-.021-.623-.044-1.266-.073-1.896-.058-1.25.133-2.652.335-4.135.352-2.583.716-5.254-.304-7.044a.459.459 0 0 1 .035-.515.459.459 0 0 1 .487-.165.46.46 0 0 1 .281.217c1.528 2.685 4.352 6.18 6.798 7.675 1.767 1.081 3.056 2.099 4.056 3.203 1.3 1.434 2.07 3.015 2.289 4.7.136 1.043.038 2.087-.057 3.097-.093 1.027-.185 1.998-.051 2.958.199 1.41 1 2.787 2.197 3.775s2.696 1.512 4.116 1.44a.463.463 0 0 1 .251.866c-2.385 1.349-5.088 2.878-8.027 3.356a8.591 8.591 0 0 1-1.378.117Zm-9.425-28.309c.092 1.5-.131 3.143-.35 4.754-.197 1.44-.382 2.801-.328 3.967.029.635.052 1.281.073 1.906.092 2.733.192 5.557.903 8.207 1.293 4.825 5.266 9.276 10.359 8.448 2.273-.371 4.37-1.389 6.389-2.501-2.836-.568-5.282-2.985-5.693-5.89-.152-1.069-.051-2.14.046-3.176.093-1.003.185-1.95.06-2.89-.452-3.481-3.395-5.694-5.913-7.231-1.546-.946-3.021-2.485-3.986-3.612a33.867 33.867 0 0 1-1.562-1.982h.002Z"/><path fill="#fff" d="M120.096 74.37a2.889 2.889 0 0 1 .015-.436c.113-1.007 1.135-1.873 2.178-1.546 1.081.34 1.908 1.553 2.395 2.795.528 1.347.77 2.86.502 4.206-.268 1.346-1.092 2.487-2.217 2.779-1.503.387-3.45-1.02-3.911-2.39-.294-.873-.77-3.427-.484-4.31.209-.627 1.529-.783 1.522-1.098Z"/><path fill="#6A79A8" d="M122.441 82.697a3.21 3.21 0 0 1-2.071-.813.463.463 0 0 1 .602-.703c.565.486 1.288.693 1.886.538.893-.23 1.63-1.18 1.875-2.417.232-1.166.061-2.568-.479-3.947-.522-1.33-1.308-2.273-2.103-2.523-.37-.116-.808-.006-1.141.289a1.239 1.239 0 0 0-.421 1.17.477.477 0 0 1-.069.354.466.466 0 0 1-.302.198.46.46 0 0 1-.477-.217.468.468 0 0 1-.062-.174 2.19 2.19 0 0 1 .72-2.027c.575-.506 1.352-.689 2.033-.477 1.074.338 2.054 1.456 2.687 3.069.604 1.542.791 3.128.526 4.465-.316 1.585-1.317 2.816-2.552 3.133a2.583 2.583 0 0 1-.652.082Z"/><path fill="#6A79A8" d="M121.744 79.35c-.089 0-.178-.01-.265-.027a.452.452 0 0 1-.293-.199.445.445 0 0 1-.068-.167.459.459 0 0 1 .546-.542.573.573 0 0 0 .482-.163.908.908 0 0 0 .301-.74.967.967 0 0 0-.429-.705.6.6 0 0 0-.507-.098.461.461 0 0 1-.565-.641.463.463 0 0 1 .265-.235 1.5 1.5 0 0 1 1.312.2 1.874 1.874 0 0 1 .845 1.403c.022.28-.022.562-.128.823a1.813 1.813 0 0 1-.48.681 1.524 1.524 0 0 1-1.016.41Z"/><path fill="#fff" d="M96.185 75.716a2.357 2.357 0 0 0-.117-.362c-.35-.819-1.542-1.297-2.47-.763-.964.555-1.48 1.772-1.65 2.936-.191 1.26-.066 2.593.513 3.655.578 1.061 1.645 1.819 2.797 1.785 1.544-.044 3.292-.23 3.21-2.963-.025-.81-.07-3.07-.555-3.738-.35-.48-1.661-.287-1.728-.55Z"/><path fill="#6A79A8" d="M95.188 83.43c-1.238 0-2.46-.787-3.133-2.028-.586-1.078-.786-2.479-.565-3.945.23-1.527.915-2.719 1.878-3.269a2.345 2.345 0 0 1 2.217 0c.603.32.976.869 1.025 1.504a.465.465 0 0 1-.876.245.465.465 0 0 1-.048-.175c-.033-.427-.35-.657-.536-.756a1.426 1.426 0 0 0-1.326-.01c-1.016.58-1.332 2.014-1.421 2.603-.191 1.269-.028 2.463.462 3.365.524.964 1.455 1.574 2.378 1.543.3-.008.749-.08 1.024-.22a.461.461 0 0 1 .632.558.463.463 0 0 1-.216.269c-.43.218-1.012.307-1.413.32l-.082-.003Z"/><path fill="#6A79A8" d="M95.397 80.406a1.715 1.715 0 0 1-.792-.198 1.59 1.59 0 0 1-.851-1.112 1.704 1.704 0 0 1 .978-1.784c.221-.1.461-.152.704-.151a.46.46 0 0 1 .443.482.463.463 0 0 1-.482.444.773.773 0 0 0-.702.534.782.782 0 0 0-.037.309.689.689 0 0 0 .37.458.701.701 0 0 0 .605.043.462.462 0 1 1 .379.845c-.194.086-.403.13-.615.13ZM110.866 75.615a2.03 2.03 0 0 1-1.223-.396.471.471 0 0 1-.18-.305.477.477 0 0 1 .088-.343.46.46 0 0 1 .647-.093c.467.354 1.245.246 1.6-.221a.462.462 0 0 1 .829.217.466.466 0 0 1-.09.344 2.096 2.096 0 0 1-1.671.797ZM100.964 76.414a2.044 2.044 0 0 1-1.371-.507.466.466 0 0 1-.04-.657.462.462 0 0 1 .656-.033c.436.392 1.221.35 1.614-.085a.461.461 0 0 1 .804.287.466.466 0 0 1-.119.334 2.072 2.072 0 0 1-1.544.661ZM106.92 83.368c-1.317 0-2.573-.897-2.979-2.16a.456.456 0 0 1 .028-.354.472.472 0 0 1 .27-.23.457.457 0 0 1 .494.141c.039.046.069.1.087.158.297.92 1.282 1.586 2.246 1.513.963-.073 1.838-.877 1.994-1.832a.463.463 0 0 1 .912.15c-.225 1.38-1.445 2.5-2.837 2.606a2.829 2.829 0 0 1-.215.008Z"/><path fill="#fff" d="M64.394 93.65s-13.541 16.704-33.277-.653c1.478-5.485 2.81-11.299 4.292-16.788 1.127-4.155 1.795-8.97 5.173-12.032 3.603-3.263 9.528-2.979 13.48-.149 3.855 2.76 5.044 8.13 5.557 12.587.394 3.411.43 6.854.894 10.26.418 3.065 1.67 4.813 3.881 6.776Z"/><path fill="#6A79A8" d="M48.883 101.348c-5.954 0-12.023-2.686-18.067-8.003a.463.463 0 0 1-.142-.469c.74-2.736 1.453-5.603 2.142-8.376.69-2.773 1.407-5.662 2.151-8.412.185-.679.352-1.362.53-2.086.909-3.697 1.847-7.521 4.775-10.17 1.787-1.616 4.242-2.5 6.923-2.478 2.557.018 5.047.82 7.137 2.297 4.157 2.979 5.272 8.798 5.747 12.911.18 1.564.287 3.154.39 4.692.124 1.828.25 3.718.501 5.557.412 3.023 1.68 4.67 3.731 6.492a.463.463 0 0 1 .052.638c-.055.068-1.371 1.677-3.784 3.394-2.225 1.585-5.84 3.555-10.427 3.942a19.56 19.56 0 0 1-1.66.071Zm-17.241-8.51c6.338 5.508 12.671 8.037 18.823 7.517 7.26-.613 12.085-5.365 13.281-6.668-1.07-.987-1.806-1.852-2.36-2.772-.696-1.154-1.118-2.419-1.33-3.978-.255-1.87-.384-3.777-.509-5.62-.102-1.528-.208-3.107-.386-4.648-.454-3.94-1.505-9.5-5.367-12.265a11.572 11.572 0 0 0-6.606-2.123h-.076c-2.416 0-4.62.794-6.22 2.24-2.717 2.458-3.623 6.141-4.498 9.704a97.78 97.78 0 0 1-.535 2.106 440.008 440.008 0 0 0-2.146 8.393c-.667 2.683-1.356 5.455-2.071 8.114Z"/><path fill="#6A79A8" d="M41.635 76.467a.37.37 0 0 0-.018.032c-.696 1.214 1.582 1.845 1.649.451.053-1.115-1.1-1.356-1.631-.483ZM51.526 76.577l-.02.032c-.695 1.214 1.584 1.845 1.65.45.053-1.115-1.1-1.355-1.63-.482ZM60.166 59.898c-.426 2.27-2.76 3.215-4.998 2.823-3.036-.533-6.006-1.785-9.13-1.575-2.872.194-5.697 1.57-7.669 3.474-1.35 1.306-2.458 2.981-2.926 4.785-.59 2.268-.384 4.677-.176 6.98 0 0 1.848-2.513 2.35-3.034a13.823 13.823 0 0 1 3.418-2.593c2.502-1.348 5.436-1.964 8.294-1.606 1.742.217 3.431.761 5.167 1.019.752.118 1.514.158 2.274.12 1.148-.07 2.344-.25 3.254-.951a5.977 5.977 0 0 0 2.297-4.51c.064-1.95-.877-3.51-2.155-4.932Z"/><path fill="#6A79A8" d="M35.275 76.848a.462.462 0 0 1-.46-.42c-.203-2.23-.433-4.755.184-7.14.462-1.765 1.543-3.54 3.05-5 2.133-2.064 5.107-3.412 7.956-3.603 2.167-.147 4.262.389 6.29.905.968.248 1.968.503 2.95.675 1.926.338 4.078-.396 4.464-2.452a.464.464 0 0 1 .582-.358c.083.024.157.07.215.134 2.117 2.355 2.31 4.126 2.275 5.253a6.482 6.482 0 0 1-2.467 4.87c-1.033.798-2.354.977-3.51 1.047-.793.04-1.587-.002-2.37-.125-.832-.123-1.648-.31-2.442-.492-.889-.204-1.807-.413-2.714-.527-2.687-.336-5.535.216-8.019 1.555a13.253 13.253 0 0 0-3.305 2.5c-.392.411-1.8 2.297-2.31 2.99a.461.461 0 0 1-.37.188ZM46.739 61.59c-.223 0-.446.008-.67.023-2.637.177-5.395 1.428-7.376 3.344-1.386 1.344-2.383 2.963-2.8 4.568-.474 1.82-.413 3.782-.268 5.613.583-.776 1.353-1.782 1.663-2.104a14.225 14.225 0 0 1 3.53-2.679c2.652-1.429 5.696-2.017 8.571-1.657.944.133 1.88.314 2.805.542.778.177 1.58.361 2.372.479.721.114 1.451.152 2.18.114 1.016-.061 2.164-.21 3.001-.856a5.527 5.527 0 0 0 2.112-4.167c.045-1.353-.423-2.602-1.503-3.972a3.846 3.846 0 0 1-1.797 1.883c-.997.512-2.229.675-3.47.458-1.016-.179-2.032-.438-3.02-.69-1.74-.444-3.533-.899-5.33-.899ZM48.263 85.996h-.082a2.926 2.926 0 0 1-1.978-.96 2.94 2.94 0 0 1-.756-2.067.463.463 0 1 1 .924.061 1.917 1.917 0 0 0 1.11 1.84 1.905 1.905 0 0 0 2.547-.974c.102-.233.156-.484.16-.739a.464.464 0 0 1 .462-.463.462.462 0 0 1 .462.463 2.945 2.945 0 0 1-.863 1.984 2.932 2.932 0 0 1-1.984.856l-.002-.001Z"/><path fill="#fff" d="M35.488 76.662a2.59 2.59 0 0 0 0-.408c-.08-.946-1.088-1.796-2.16-1.53-1.11.277-1.997 1.375-2.538 2.519-.586 1.237-.886 2.64-.662 3.909.223 1.267 1.023 2.366 2.153 2.68 1.515.421 3.546-.815 4.065-2.078.33-.806.907-3.176.647-4.01-.186-.596-1.524-.792-1.505-1.082Z"/><path fill="#6A79A8" d="M32.917 84.38c-.257.001-.512-.033-.759-.101-1.243-.346-2.217-1.541-2.484-3.045-.224-1.274.025-2.761.7-4.19.704-1.488 1.74-2.5 2.844-2.77a2.296 2.296 0 0 1 2.115.617 1.964 1.964 0 0 1 .566 1.873.465.465 0 0 1-.556.354.462.462 0 0 1-.344-.563 1.06 1.06 0 0 0-.315-1.006 1.362 1.362 0 0 0-1.245-.376c-.832.206-1.646 1.033-2.23 2.268-.595 1.256-.817 2.546-.625 3.63.204 1.156.92 2.065 1.822 2.316.615.171 1.37.005 1.969-.432a.462.462 0 0 1 .729.447.464.464 0 0 1-.185.302c-.58.43-1.28.667-2.002.677Z"/><path fill="#6A79A8" d="M33.683 81.279a1.598 1.598 0 0 1-1.118-.48 1.696 1.696 0 0 1-.505-1.406 1.776 1.776 0 0 1 .846-1.261 1.61 1.61 0 0 1 1.386-.18.462.462 0 0 1-.312.873.704.704 0 0 0-.59.093.844.844 0 0 0-.413.59.765.765 0 0 0 .238.629.661.661 0 0 0 .546.207.46.46 0 0 1 .54.39.464.464 0 0 1-.408.526 1.43 1.43 0 0 1-.21.019Z"/><path fill="#fff" d="M59.012 76.078c.016-.135.041-.268.077-.4.257-.914 1.408-1.555 2.412-1.092 1.04.482 1.699 1.731 2.013 2.957.34 1.326.37 2.762-.092 3.964-.462 1.203-1.453 2.13-2.622 2.223-1.57.125-3.326-1.476-3.597-2.815-.172-.853-.288-3.29.125-4.059.297-.55 1.647-.489 1.684-.778Z"/><path fill="#6A79A8" d="M60.623 84.198c-.859 0-1.736-.4-2.386-1.098a.464.464 0 0 1 .355-.78.462.462 0 0 1 .321.148c.506.544 1.215.85 1.848.798.934-.074 1.808-.833 2.227-1.925.394-1.029.42-2.338.075-3.684-.34-1.324-.981-2.29-1.756-2.65a1.359 1.359 0 0 0-1.293.132 1.056 1.056 0 0 0-.5.926.464.464 0 0 1-.623.452.462.462 0 0 1-.302-.417 1.97 1.97 0 0 1 .911-1.732c.654-.437 1.516-.517 2.194-.203 1.032.482 1.854 1.667 2.267 3.26.393 1.532.355 3.04-.106 4.246-.546 1.428-1.73 2.416-3.017 2.518a2.41 2.41 0 0 1-.215.009Z"/><path fill="#6A79A8" d="M60.19 80.98c-.164.001-.328-.027-.483-.08a.463.463 0 0 1 .303-.875.66.66 0 0 0 .581-.1.763.763 0 0 0 .352-.571.85.85 0 0 0-.292-.657.704.704 0 0 0-.562-.207.462.462 0 0 1-.53-.386.465.465 0 0 1 .386-.53 1.608 1.608 0 0 1 1.325.439 1.774 1.774 0 0 1 .593 1.399 1.696 1.696 0 0 1-.763 1.284 1.638 1.638 0 0 1-.91.285Z"/><path fill="#fff" d="M30.363 122.979c.803.21.744 1.305.284 1.801-.239.239-.527.422-.845.536-1.588.641-3.572.516-5.25.382-1.94-.155-4.065-.476-5.831-1.297 2.117 1.482 4.38 2.339 6.813 3.129 1.017.33 4.805 1.254 4.417 2.829-.115.463-.599.756-1.072.801-4.553.436-10.856-1.255-14.92-3.227-7.937-3.853-12.377-11.214-8.983-19.861C8.923 98.014 21.18 94.052 30.99 93.11c-8.477 7.125-10.94 7.953-13.554 13.169-3.748 7.482 6.537 12.705 11.84 13.179.979.087 2.217.58 2.372 1.554.092.594-.343 1.171-.884 1.431-.542.259-1.164.271-1.763.259a29.61 29.61 0 0 1-8.834-1.535l10.195 1.812Z"/><path fill="#6A79A8" d="M27.334 131.697c-4.58 0-10.078-1.646-13.578-3.344-4.158-2.02-7.257-4.909-8.953-8.345-1.824-3.704-1.913-7.885-.258-12.102 1.838-4.685 5.55-8.434 11.034-11.145 5.463-2.702 11.372-3.725 15.367-4.108a.46.46 0 0 1 .493.57.462.462 0 0 1-.152.245c-2.24 1.883-4.089 3.35-5.574 4.527-4.233 3.357-5.985 4.747-7.864 8.496-1.016 2.037-1.004 4.023.044 5.909 2.13 3.832 8.002 6.298 11.423 6.6 1.255.112 2.604.757 2.789 1.945.113.732-.328 1.5-1.08 1.889.169.16.292.364.355.588a1.834 1.834 0 0 1-.394 1.679 2.69 2.69 0 0 1-1.012.649c-1.623.654-3.587.563-5.458.414a29.92 29.92 0 0 1-2.01-.226c.985.414 2.033.784 3.17 1.153.109.036.25.078.417.127 1.545.463 4.76 1.424 4.305 3.254-.128.515-.633 1.07-1.478 1.151-.511.046-1.043.074-1.586.074Zm2.179-37.954c-3.81.478-8.843 1.533-13.524 3.848-5.272 2.607-8.833 6.191-10.584 10.65-1.557 3.969-1.479 7.894.227 11.353 1.603 3.253 4.552 5.992 8.527 7.922 3.803 1.845 10.018 3.629 14.675 3.184.277-.027.604-.195.668-.453.113-.458-.543-.903-1.109-1.198-.832-.428-1.871-.741-2.56-.945-.174-.052-.324-.093-.438-.134-2.67-.866-4.87-1.74-6.936-3.189a.464.464 0 0 1 .125-.826.458.458 0 0 1 .337.027c1.418.661 3.22 1.06 5.675 1.256 1.385.111 3.482.278 5.039-.35.254-.088.486-.232.679-.42a.915.915 0 0 0 .185-.79.319.319 0 0 0-.233-.245l-1.544-.278a29.976 29.976 0 0 1-8.701-1.553.46.46 0 0 1-.299-.552.461.461 0 0 1 .526-.342l8.559 1.525h.199c.54.011 1.103 0 1.555-.214.349-.168.687-.556.627-.942-.102-.658-1.063-1.084-1.958-1.164-1.975-.176-4.442-.962-6.599-2.102-1.8-.952-4.224-2.587-5.544-4.97-1.206-2.17-1.228-4.445-.063-6.775 1.97-3.933 3.897-5.465 8.117-8.807 1.21-.956 2.663-2.108 4.372-3.521v.005Z"/></svg>