<svg xmlns="http://www.w3.org/2000/svg" width="114" height="26" fill="none" viewBox="0 0 114 26"><path fill="#1253A4" d="M91.48 15.26v9.343h-3.979c-.034-.9.128-1.798.474-2.63l-.13-.07a5.404 5.404 0 0 1-5.1 3.172 4.963 4.963 0 0 1-5.292-5.206 4.912 4.912 0 0 1 5.364-5.136 5.523 5.523 0 0 1 4.978 2.573l.128-.07a7.285 7.285 0 0 1-.257-2.188c-.106-1.543-1.244-2.384-3.278-2.384-1.488.03-2.966.247-4.4.644l-.771-3.313a23.93 23.93 0 0 1 5.591-.736c4.692.026 6.673 1.796 6.673 6.002Zm-9.833 4.504a2.325 2.325 0 0 0 2.629 2.278 2.466 2.466 0 0 0 2.77-2.316 2.421 2.421 0 0 0-2.734-2.278 2.39 2.39 0 0 0-2.664 2.317v-.001ZM97.814 24.62h-3.926V1.643h3.926v22.979ZM113.917 15.26v9.343h-3.978a5.969 5.969 0 0 1 .491-2.63l-.129-.07a5.405 5.405 0 0 1-5.1 3.172 4.965 4.965 0 0 1-5.293-5.206 4.92 4.92 0 0 1 1.508-3.793 4.919 4.919 0 0 1 3.856-1.343 5.523 5.523 0 0 1 4.977 2.573l.129-.07a7.274 7.274 0 0 1-.257-2.188c-.088-1.543-1.244-2.384-3.278-2.384-1.488.03-2.966.247-4.399.644l-.772-3.313a23.926 23.926 0 0 1 5.591-.736c4.673.026 6.654 1.796 6.654 6.002Zm-9.832 4.504a2.317 2.317 0 0 0 .802 1.73 2.33 2.33 0 0 0 1.827.548 2.466 2.466 0 0 0 2.769-2.316 2.432 2.432 0 0 0-.868-1.738 2.425 2.425 0 0 0-1.866-.54 2.39 2.39 0 0 0-2.665 2.317l.001-.001ZM76.221 17.452a8.227 8.227 0 1 1-8.22-7.905 7.783 7.783 0 0 1 8.22 7.905Zm-12.392 0a4.17 4.17 0 1 0 4.17-4.171 3.955 3.955 0 0 0-4.175 4.17h.005ZM54.634 20.526a12.412 12.412 0 0 0 2.815-8.057A12.044 12.044 0 0 0 45.005.007h-.282a12.041 12.041 0 0 0-12.444 12.462 12.188 12.188 0 0 0 12.444 12.443h12.79v-4.386h-2.88ZM36.919 12.45a7.947 7.947 0 1 1 15.892 0 7.945 7.945 0 0 1-13.565 5.618 7.946 7.946 0 0 1-2.328-5.618Z"/><path fill="url(#paint0_radial_4201_24120)" d="M26.607 11.645a16.515 16.515 0 0 0-.487-1.477 11.52 11.52 0 0 0-.66-1.4c-.157-.292-.35-.583-.526-.875a3.439 3.439 0 0 0-.311-.427 12.38 12.38 0 0 0-2.216-2.293c-.136-.117-.292-.213-.427-.33a14.236 14.236 0 0 0-1.225-.773c-.098-.057-.213-.117-.311-.174a8.616 8.616 0 0 0-1.302-.583 6.407 6.407 0 0 0-1.03-.35 1.817 1.817 0 0 0-.426-.137c.544-.194.68-.446.66-.621a1 1 0 0 0-.31-.486c-.118-.118-.408-.37.116-.602.525-.214.583-.468.506-.72-.175-.583-.836-.369-1.575-.257a7.007 7.007 0 0 0-2.876 1.458 9.87 9.87 0 0 0-6.122-.233 7.96 7.96 0 0 0-1.36.505A9.411 9.411 0 0 0 1.827.646C.894.763 0 .723 0 1.5c0 .33.156.622.875.7.72.079.467.506.37.68-.147.212-.222.463-.214.72.038.233.271.427 1.029.544.175.058.35 0 .271.661-.019.292-.077.603.564.895a2.934 2.934 0 0 0 1.535-.214 6.343 6.343 0 0 0 1.029 4.548s.427.486.661.7a6.82 6.82 0 0 0 1.575 1.07c.292.136.583.27.914.385a2.27 2.27 0 0 1-1.77-.369 15.325 15.325 0 0 1-2.74-2.04 1.94 1.94 0 0 0-.213.194 6.419 6.419 0 0 0-.816 1.632c-.098.292-.175.564-.257.875a6.607 6.607 0 0 0-.137.894c-.038.37-.058.739-.077 1.089a8.653 8.653 0 0 0 .427 3.285c.264.741.61 1.451 1.03 2.117a9.253 9.253 0 0 0 2.76 2.74c.364.238.747.446 1.145.622.391.178.794.327 1.206.447.273.077.544.155.836.213.666.171 1.358.217 2.04.137a2.668 2.668 0 0 0 .895-.312 1.882 1.882 0 0 0 .971-1.594v-.039a3.175 3.175 0 0 1-.427.02 3.624 3.624 0 0 1-3.517-2.78c-.23.183-.506.298-.797.331-.427-.058-.446-.257-.486-.427-.077-.408-.175-.33-.272-.35-.446.058-.643-.019-.7-.155a.704.704 0 0 1 0-.447c.04-.136.098-.408-.33-.33-.429.077-.564-.058-.622-.258-.136-.446.386-.583.914-.816a5.337 5.337 0 0 1 2.643-.194h.038c.18-.306.403-.584.665-.823.316-.517.8-.909 1.37-1.11h.025a.076.076 0 0 1 .041.144 2.625 2.625 0 0 0-.417.284c.231-.149.49-.251.76-.301h.024a.062.062 0 0 1 .057.066.06.06 0 0 1-.016.034c.196-.033.395-.05.593-.05.156 0 .312.02.447.02a5.62 5.62 0 0 1 1.4-1.287c.544-.292 1.01-.662 1.302-.258.136.175.155.386-.195.72-.35.333-.058.446.077.505.16.059.296.168.386.312.058.136.02.33-.33.7-.058.097-.195.136.098.467.117.155.291.292.038.7a.041.041 0 0 1-.038.038c.082.157.154.32.213.486.093.204.152.421.175.644 0 0 .583-.758.772-.564.19.194.875.643-1.287 3.246a11.952 11.952 0 0 1-1.982 3.012l-.02-.02c-.038.04-.077.099-.117.137l-.175.175c-.077.077-.155.137-.232.214-.258.194-.506.369-.739.583a.309.309 0 0 0-.098.155.566.566 0 0 0-.038.175.146.146 0 0 0 .019.098c.039.096.257.175.386.194h.971c.331 0 .644 0 .952.02.34.024.68-.002 1.012-.078.313-.071.61-.202.874-.386.187-.127.357-.277.506-.446.272-.311.544-.602.837-.9.471-.478.912-.984 1.32-1.516a20.43 20.43 0 0 0 1.206-1.964 15.92 15.92 0 0 0 1.287-6.911.247.247 0 0 1 .224-.187.258.258 0 0 1 .27.148c.102.419.162.846.178 1.277.019.257.019.505.038.757.017.74-.016 1.48-.098 2.216a14.588 14.588 0 0 1-3.44 7.871c.018.062.043.12.077.175.2-.03.4-.049.602-.058.137-.019.273-.019.386-.038.058-.02.137-.02.195-.039a2.6 2.6 0 0 0 .35-.136c.175-.098.33-.194.505-.312a11.423 11.423 0 0 0 2.546-2.39c.117-.156.258-.311.37-.466a11.87 11.87 0 0 0 1.32-2.235c.059-.117.099-.233.137-.33.098-.233.175-.447.258-.68.233-.701.389-1.425.465-2.159.058-.602.117-1.224.117-1.826a13.03 13.03 0 0 0-.375-3.133ZM8.26 6.24a.834.834 0 0 1-.933.621.683.683 0 0 1-.643-.757.84.84 0 0 1 .952-.644.685.685 0 0 1 .624.781v-.001Zm3.537 2.74a1.528 1.528 0 0 1-1.904-1.457c-.233-1.287.292-2.468 1.165-2.624.874-.155 1.789.758 2.021 2.04a1.543 1.543 0 0 1-1.282 2.043V8.98Zm3.401-3.473a.59.59 0 0 1-.7.427.602.602 0 0 1-.544-.662.59.59 0 0 1 .7-.427.612.612 0 0 1 .544.658v.004Z"/><path fill="#F79420" d="m22.868 7.333.112.167c.073.108.183.268.307.477.066.105.129.22.206.35.077.13.152.268.23.42.161.3.323.65.484 1.04.173.421.323.85.45 1.287.146.486.26.98.343 1.48.09.534.147 1.074.172 1.616.01.274.02.56.01.836l-.009.418-.03.422c-.013.283-.062.56-.093.839-.031.28-.088.553-.15.822l-.09.404c-.03.129-.07.264-.105.395-.067.257-.154.515-.235.772-.081.257-.18.492-.273.727a7.367 7.367 0 0 1-.306.677c-.11.215-.209.428-.323.624-.115.195-.216.386-.33.567-.115.182-.217.351-.329.507-.112.156-.21.309-.318.443-.107.133-.2.263-.292.378l-.257.311c-.155.19-.295.323-.386.422l-.136.147.128-.153c.082-.102.215-.242.364-.436l.25-.318c.089-.117.179-.248.28-.386.1-.138.197-.29.3-.45.103-.161.211-.33.315-.515.105-.185.213-.37.318-.57.106-.2.205-.41.309-.625.104-.216.19-.447.29-.677.101-.23.182-.475.258-.722.076-.247.165-.5.228-.76.033-.129.072-.257.101-.386l.087-.4c.06-.268.096-.542.142-.815a6.87 6.87 0 0 0 .088-.827l.032-.414.012-.418c.011-.28 0-.551 0-.827a13.297 13.297 0 0 0-.161-1.599 13.617 13.617 0 0 0-.74-2.757c-.077-.194-.15-.386-.229-.554-.078-.169-.15-.34-.225-.493-.076-.153-.146-.296-.215-.426-.07-.13-.129-.25-.194-.355-.12-.214-.219-.378-.288-.489l-.102-.176Z"/><path fill="url(#paint1_linear_4201_24120)" d="M17.846 4.468c.277.632.421 1.316.423 2.007 0 3.351-3.345 6.068-7.485 6.068a9.08 9.08 0 0 1-2.353-.307c-.051.009-.102.014-.153.017h-.184c-.033 0-.065-.008-.097-.012l-.103-.015-.099-.022-.116-.03-.1-.03-.129-.046-.098-.037c-.051-.02-.105-.045-.16-.068l-.084-.038a6.897 6.897 0 0 1-.257-.128 15.32 15.32 0 0 1-2.74-2.04c-.05.05-.13.1-.187.164a10.724 10.724 0 0 0 9.819 12.922c0-.011.01-.025.015-.037.024-.054.044-.11.062-.167l.022-.075c.014-.05.027-.103.037-.155 0-.025.01-.048.014-.072.013-.078.025-.156.031-.238v-.04c-.045.007-.094.01-.143.013-.096 0-.194.007-.285.007a3.601 3.601 0 0 1-2.874-1.428 3.663 3.663 0 0 1-.644-1.35 2.179 2.179 0 0 1-.663.32.586.586 0 0 1-.074.011.279.279 0 0 1-.059 0 .873.873 0 0 1-.25-.067.377.377 0 0 1-.139-.103.449.449 0 0 1-.082-.191l-.014-.066a1.533 1.533 0 0 0-.03-.129.728.728 0 0 0-.032-.092.193.193 0 0 0-.085-.107.463.463 0 0 0-.128-.018c-.447.058-.644-.02-.7-.156a.704.704 0 0 1 0-.446l.007-.027a.403.403 0 0 0 .013-.19.154.154 0 0 0-.113-.114.278.278 0 0 0-.045-.01h-.118l-.075.01a1.113 1.113 0 0 1-.269.02.458.458 0 0 1-.18-.044.305.305 0 0 1-.11-.097.448.448 0 0 1-.062-.129c-.078-.257.056-.404.28-.53.175-.1.404-.184.633-.285.124-.044.248-.082.37-.113.46-.118.933-.173 1.407-.164.29.005.58.032.866.082h.038a3.479 3.479 0 0 1 .563-.73l.105-.1c.316-.515.8-.906 1.369-1.107h.024a.076.076 0 0 1 .042.144 2.622 2.622 0 0 0-.417.284c.23-.148.489-.25.759-.3h.024a.06.06 0 0 1 .054.041.06.06 0 0 1 .003.024.06.06 0 0 1-.013.033c.195-.032.393-.048.59-.048h.116c.116 0 .23.014.332.014.39-.506.864-.94 1.4-1.287.068-.036.129-.075.2-.112.232-.167.5-.277.782-.323.073 0 .144.022.204.063a.47.47 0 0 1 .117.119.515.515 0 0 1 .046.068c.09.162.066.363-.24.65-.218.207-.186.33-.099.407.018.016.038.03.058.042.02.011.041.023.062.032l.03.013.026.011.054.025c.14.057.258.158.336.286a.288.288 0 0 1 .013.184c-.07.198-.187.375-.343.515-.034.054-.09.091-.083.171.03.114.092.217.18.296.035.05.078.095.111.15l.018.033a.34.34 0 0 1 .039.158.478.478 0 0 1-.03.157c-.026.071-.06.14-.1.203a.039.039 0 0 1-.026.032h-.013l.115.236c.037.081.07.165.099.25.092.203.151.42.175.643.117-.149.246-.288.386-.416a1.04 1.04 0 0 1 .193-.142.29.29 0 0 1 .114-.038.112.112 0 0 1 .089.032c.117.094.2.222.238.367 0 .018.008.039.01.058a.826.826 0 0 1 .008.128 1.154 1.154 0 0 1-.015.16 1.63 1.63 0 0 1-.043.188c-.035.116-.078.23-.129.34a3.906 3.906 0 0 1-.306.579c-.067.11-.142.227-.226.35l-.129.19c-.188.257-.413.553-.682.879l-.128.292-.05.099-.106.208-.063.119c-.04.073-.083.148-.129.222l-.072.129c-.056.093-.114.187-.176.283l-.104.158-.12.178-.129.175c-.042.06-.087.12-.128.181-.042.06-.084.114-.129.172.217-.016.02.177-.364.46a15.31 15.31 0 0 1-.283.338l-.02-.02c-.038.04-.077.099-.117.137l-.175.175c-.077.077-.155.137-.232.214-.258.194-.506.369-.739.583a.308.308 0 0 0-.098.155.571.571 0 0 0-.038.175.145.145 0 0 0 .019.098c.03.077.17.14.293.174 5.076-.772 7.214-8.84 7.214-12.119-.015-3.416-.684-6.452-2.834-8.766Z"/><path fill="#F79420" d="m3.676 12.17.038.576.02.303.051.354c.034.283.083.564.147.841l.104.478.15.5c.092.348.25.693.387 1.06.077.178.167.356.257.538l.128.273.154.265c.105.175.196.362.316.531l.353.515c.12.17.257.328.386.493.065.08.128.165.194.242l.21.226.207.225c.066.076.138.148.213.215l.436.405c.145.13.302.244.446.364.14.12.286.232.438.335l.43.297c.139.096.284.17.42.258.135.087.265.155.385.225l.365.179.32.158c.1.046.196.08.28.114l.536.216-.546-.187c-.086-.032-.184-.06-.287-.103l-.328-.144-.374-.165c-.129-.064-.258-.14-.4-.215-.14-.075-.286-.15-.429-.242l-.442-.288a4.905 4.905 0 0 1-.453-.326c-.15-.117-.308-.231-.456-.364l-.445-.406a2.53 2.53 0 0 1-.217-.216l-.213-.227-.214-.228c-.071-.077-.13-.162-.2-.243-.129-.166-.269-.325-.386-.496l-.352-.526c-.12-.174-.211-.363-.317-.542l-.153-.27c-.046-.092-.087-.186-.129-.278-.085-.186-.175-.366-.257-.548a10.096 10.096 0 0 1-.368-1.08l-.139-.514-.093-.486c-.025-.155-.066-.302-.075-.446l-.042-.408-.036-.357v-.304l-.02-.578Z"/><path fill="url(#paint2_linear_4201_24120)" d="M2.332 4.802c-.019.292-.077.602.564.894a2.8 2.8 0 0 0 1.454-.188 5.46 5.46 0 0 1 .788-1.872A4.224 4.224 0 0 0 .014 1.352.832.832 0 0 0 0 1.498c0 .331.156.622.875.7.72.079.467.506.37.681-.147.21-.222.463-.214.72.038.232.271.426 1.029.543.174.058.348 0 .271.66Z"/><path fill="url(#paint3_linear_4201_24120)" d="m15.809 2.615.03.023c.668.006 1.335.077 1.99.211a.47.47 0 0 0-.143-.03c.544-.194.68-.446.661-.62a1 1 0 0 0-.311-.487c-.117-.117-.408-.37.117-.602.525-.214.583-.467.505-.72a.699.699 0 0 0-.04-.101c-.057 0-.117-.01-.176-.01a2.654 2.654 0 0 0-2.633 2.336Z"/><path fill="#F79420" d="m5.137 3.638-.107-.179a2.208 2.208 0 0 0-.128-.2 3.462 3.462 0 0 0-.178-.25 3.5 3.5 0 0 0-.227-.28c-.084-.099-.182-.191-.28-.29a3.133 3.133 0 0 0-.324-.28 4.192 4.192 0 0 0-.745-.479 3.722 3.722 0 0 0-.765-.31 3.04 3.04 0 0 0-.35-.093c-.11-.027-.211-.042-.301-.058a1.945 1.945 0 0 0-.236-.032l-.207-.023.208-.008c.08-.005.161-.005.241 0 .104.003.208.012.311.03.123.015.245.038.365.068a3.484 3.484 0 0 1 .806.29c.138.067.271.142.4.224a4.263 4.263 0 0 1 .696.574c.096.1.187.205.27.316.077.097.147.198.213.303.058.087.11.177.156.272.038.07.073.142.104.216l.078.189ZM18.442.28l-.164.024a1.189 1.189 0 0 0-.187.032c-.07.016-.15.031-.235.058l-.129.039-.138.054c-.096.032-.188.087-.288.128a3.215 3.215 0 0 0-.287.178c-.19.13-.364.285-.514.46a3.343 3.343 0 0 0-.21.266c-.055.094-.122.178-.166.27a2.505 2.505 0 0 0-.215.485c-.022.058-.04.119-.054.18l-.043.16.013-.165c.005-.064.015-.127.029-.19a1.36 1.36 0 0 1 .059-.241c.028-.095.063-.188.104-.278a2.271 2.271 0 0 1 .364-.584c.08-.094.166-.183.258-.267.093-.08.191-.153.294-.22.1-.066.203-.125.31-.176.101-.046.205-.084.312-.116l.148-.042.14-.027c.081-.017.165-.027.248-.03a1.23 1.23 0 0 1 .19 0l.161.003Z"/><path fill="url(#paint4_linear_4201_24120)" d="M4.444 4.954a5.569 5.569 0 0 0-.129.565l.1-.031a7.3 7.3 0 0 1 .03-.534Z"/><path fill="url(#paint5_linear_4201_24120)" d="M11.526 11.965a6.828 6.828 0 0 1-7.104-6.25 7.268 7.268 0 0 0 .426 3.256 6.605 6.605 0 0 0 2.968 2.886c.258.117.515.232.794.333h-.014c.866.314 1.78.474 2.702.472a6.912 6.912 0 0 0 6.892-4.895 7.118 7.118 0 0 1-6.664 4.198Z"/><path fill="#F9A41A" d="m15.875 10.616-.107.077c-.07.052-.172.129-.309.211-.375.24-.774.444-1.188.607a7.491 7.491 0 0 1-1.833.469c-.354.042-.712.06-1.069.053-.18 0-.362-.007-.548-.027l-.278-.025-.275-.041a8.05 8.05 0 0 1-1.076-.257 7.966 7.966 0 0 1-.993-.398 4.808 4.808 0 0 1-.451-.24c-.147-.08-.283-.17-.415-.256a6.713 6.713 0 0 1-.707-.549c-.107-.087-.2-.184-.29-.271a3.512 3.512 0 0 1-.246-.257c-.153-.165-.27-.323-.369-.45-.099-.125-.162-.236-.212-.307l-.073-.11.08.106c.053.067.128.171.228.294.1.122.228.272.386.428.078.081.161.165.258.246.096.08.186.176.294.257.226.187.464.36.713.515.129.083.269.168.414.244.146.076.292.157.448.23.317.15.644.279.98.385.346.104.7.184 1.057.24l.269.042.268.027c.178.022.36.027.542.032a7.897 7.897 0 0 0 4.07-1.007 7.69 7.69 0 0 0 .32-.192l.112-.076Z"/><path fill="url(#paint6_linear_4201_24120)" d="M26.607 11.65a16.535 16.535 0 0 0-.486-1.478l-.058-.14-.129-.309-.02-.042a4.008 4.008 0 0 0-.128-.272l-.056-.115-.1-.2a9.19 9.19 0 0 0-.159-.297l-.012-.02a6.466 6.466 0 0 0-.257-.438 19.921 19.921 0 0 1-.27-.437 3.459 3.459 0 0 0-.311-.428 14.02 14.02 0 0 0-.5-.626 12.138 12.138 0 0 0-1.716-1.668c-.136-.117-.292-.213-.427-.33a13.128 13.128 0 0 0-1.225-.779l-.104-.057c-.07-.039-.143-.078-.207-.118a8.591 8.591 0 0 0-1.302-.582c-.143-.06-.29-.117-.438-.171a5.185 5.185 0 0 0-.587-.18 1.383 1.383 0 0 1-.12-.043l-.098-.04.023.013c-.032-.013-.064-.027-.098-.036a10.344 10.344 0 0 0-1.953-.209 4.193 4.193 0 0 1 2.234 2.12A10.23 10.23 0 0 1 20.29 9.32a1.481 1.481 0 0 1 1.626-1.072 2.864 2.864 0 0 1 2.445 2.08 13.389 13.389 0 0 1-4.576 15.12c.188-.034.378-.036.583-.055.137-.02.272-.02.386-.038.058-.02.137-.02.195-.04.12-.036.236-.082.35-.136.175-.096.33-.194.505-.31a11.414 11.414 0 0 0 2.546-2.391c.117-.156.258-.312.37-.467.52-.695.964-1.444 1.32-2.235.059-.117.099-.233.137-.33.098-.234.175-.447.258-.681.233-.7.389-1.424.465-2.158.058-.602.117-1.225.117-1.827a13.027 13.027 0 0 0-.41-3.132Z"/><path fill="url(#paint7_linear_4201_24120)" d="m17.773 2.834.048.014h.01l-.058-.014Z"/><path fill="#F79420" d="m15.86 24.324.167-.136a7.48 7.48 0 0 0 .456-.4c.227-.22.442-.45.644-.692.26-.313.504-.641.727-.983.265-.402.507-.82.725-1.25.233-.456.454-.951.664-1.47a20.053 20.053 0 0 0 1.004-3.358c.124-.58.219-1.167.283-1.757.032-.292.05-.583.059-.869.009-.285 0-.575 0-.853a23.226 23.226 0 0 0-.095-1.612c-.05-.51-.122-.992-.209-1.432-.086-.44-.181-.84-.287-1.189-.105-.348-.208-.65-.3-.9a5.732 5.732 0 0 0-.235-.561l-.089-.197.097.193a9.12 9.12 0 0 1 .585 1.442c.128.39.234.787.318 1.19.21 1.006.329 2.03.354 3.057.009.283.014.565.01.86a9.204 9.204 0 0 1-.055.881c-.061.596-.153 1.189-.276 1.776a20.207 20.207 0 0 1-1.029 3.377 14.366 14.366 0 0 1-1.443 2.72 9.209 9.209 0 0 1-1.423 1.645 6.79 6.79 0 0 1-.473.386l-.18.132Z"/><defs><linearGradient id="paint1_linear_4201_24120" x1="12.186" x2="12.186" y1="30.282" y2="6.953" gradientUnits="userSpaceOnUse"><stop stop-color="#F05A2A"/><stop offset=".238" stop-color="#F05F29"/><stop offset=".55" stop-color="#F27026"/><stop offset=".901" stop-color="#F58B21"/><stop offset="1" stop-color="#F79420"/></linearGradient><linearGradient id="paint2_linear_4201_24120" x1="1.337" x2="3.437" y1="4.265" y2="1.617" gradientUnits="userSpaceOnUse"><stop stop-color="#F79420"/><stop offset=".345" stop-color="#F47E23"/><stop offset="1" stop-color="#F05A2A"/></linearGradient><linearGradient id="paint3_linear_4201_24120" x1="16.186" x2="18.437" y1="2.99" y2=".17" gradientUnits="userSpaceOnUse"><stop stop-color="#F05A2A"/><stop offset=".655" stop-color="#F47E23"/><stop offset="1" stop-color="#F79420"/></linearGradient><linearGradient id="paint4_linear_4201_24120" x1="4.221" x2="4.59" y1="5.426" y2="5.407" gradientUnits="userSpaceOnUse"><stop stop-color="#F27128"/><stop offset="1" stop-color="#F79420"/></linearGradient><linearGradient id="paint5_linear_4201_24120" x1="7.024" x2="9.27" y1="11.597" y2="2.769" gradientUnits="userSpaceOnUse"><stop stop-color="#F27128"/><stop offset="1" stop-color="#F79420"/></linearGradient><linearGradient id="paint6_linear_4201_24120" x1="21.443" x2="21.443" y1="25.45" y2="2.648" gradientUnits="userSpaceOnUse"><stop stop-color="#F27128"/><stop offset=".584" stop-color="#F79420"/><stop offset=".815" stop-color="#F69220"/><stop offset=".898" stop-color="#F58B21"/><stop offset=".957" stop-color="#F47F24"/><stop offset="1" stop-color="#F27128"/></linearGradient><linearGradient id="paint7_linear_4201_24120" x1="17.802" x2="17.802" y1="2.848" y2="2.834" gradientUnits="userSpaceOnUse"><stop stop-color="#F27128"/><stop offset=".584" stop-color="#F79420"/><stop offset=".815" stop-color="#F69220"/><stop offset=".898" stop-color="#F58B21"/><stop offset=".957" stop-color="#F47F24"/><stop offset="1" stop-color="#F27128"/></linearGradient><radialGradient id="paint0_radial_4201_24120" cx="0" cy="0" r="1" gradientTransform="matrix(13.1154 0 0 13.1268 -168.313 -524.935)" gradientUnits="userSpaceOnUse"><stop stop-color="#F79420"/><stop offset=".555" stop-color="#F69220"/><stop offset=".755" stop-color="#F58B21"/><stop offset=".897" stop-color="#F47F24"/><stop offset="1" stop-color="#F27128"/></radialGradient></defs></svg>